<svg xmlns="http://www.w3.org/2000/svg" viewBox="0 0 480 260" role="img" aria-labelledby="title"><title id="title">Illustrative alignment with constant columns highlighted</title><text x="35" y="42" fill="#213c49" font-family="monospace" font-size="20">CONSTANT / VARIABLE SITES</text><rect x="41" y="62" width="37" height="156" rx="6" fill="#d2e8e6" stroke="none" stroke-width="2"/><rect x="133" y="62" width="37" height="156" rx="6" fill="#d2e8e6" stroke="none" stroke-width="2"/><rect x="271" y="62" width="37" height="156" rx="6" fill="#d2e8e6" stroke="none" stroke-width="2"/><rect x="363" y="62" width="37" height="156" rx="6" fill="#d2e8e6" stroke="none" stroke-width="2"/><text x="51" y="91" fill="#213c49" font-family="monospace" font-size="25">A</text><text x="97" y="91" fill="#213c49" font-family="monospace" font-size="25">C</text><text x="143" y="91" fill="#213c49" font-family="monospace" font-size="25">G</text><text x="189" y="91" fill="#213c49" font-family="monospace" font-size="25">T</text><text x="235" y="91" fill="#213c49" font-family="monospace" font-size="25">A</text><text x="281" y="91" fill="#213c49" font-family="monospace" font-size="25">C</text><text x="327" y="91" fill="#213c49" font-family="monospace" font-size="25">G</text><text x="373" y="91" fill="#213c49" font-family="monospace" font-size="25">T</text><text x="51" y="129" fill="#213c49" font-family="monospace" font-size="25">A</text><text x="97" y="129" fill="#213c49" font-family="monospace" font-size="25">T</text><text x="143" y="129" fill="#213c49" font-family="monospace" font-size="25">G</text><text x="189" y="129" fill="#213c49" font-family="monospace" font-size="25">T</text><text x="235" y="129" fill="#213c49" font-family="monospace" font-size="25">T</text><text x="281" y="129" fill="#213c49" font-family="monospace" font-size="25">C</text><text x="327" y="129" fill="#213c49" font-family="monospace" font-size="25">A</text><text x="373" y="129" fill="#213c49" font-family="monospace" font-size="25">T</text><text x="51" y="167" fill="#213c49" font-family="monospace" font-size="25">A</text><text x="97" y="167" fill="#213c49" font-family="monospace" font-size="25">C</text><text x="143" y="167" fill="#213c49" font-family="monospace" font-size="25">G</text><text x="189" y="167" fill="#213c49" font-family="monospace" font-size="25">C</text><text x="235" y="167" fill="#213c49" font-family="monospace" font-size="25">A</text><text x="281" y="167" fill="#213c49" font-family="monospace" font-size="25">C</text><text x="327" y="167" fill="#213c49" font-family="monospace" font-size="25">G</text><text x="373" y="167" fill="#213c49" font-family="monospace" font-size="25">T</text><text x="51" y="205" fill="#213c49" font-family="monospace" font-size="25">A</text><text x="97" y="205" fill="#213c49" font-family="monospace" font-size="25">T</text><text x="143" y="205" fill="#213c49" font-family="monospace" font-size="25">G</text><text x="189" y="205" fill="#213c49" font-family="monospace" font-size="25">C</text><text x="235" y="205" fill="#213c49" font-family="monospace" font-size="25">A</text><text x="281" y="205" fill="#213c49" font-family="monospace" font-size="25">C</text><text x="327" y="205" fill="#213c49" font-family="monospace" font-size="25">C</text><text x="373" y="205" fill="#213c49" font-family="monospace" font-size="25">T</text></svg>
